<?xml version="1.0" encoding="UTF-8"?>
<!DOCTYPE svg PUBLIC "-//W3C//DTD SVG 1.1//EN" "http://www.w3.org/Graphics/SVG/1.1/DTD/svg11.dtd">
<!-- Creator: CorelDRAW -->
<svg xmlns="http://www.w3.org/2000/svg" xml:space="preserve" width="80mm" height="71.8536mm" version="1.1" style="shape-rendering:geometricPrecision; text-rendering:geometricPrecision; image-rendering:optimizeQuality; fill-rule:evenodd; clip-rule:evenodd"
viewBox="0 0 2964.12 2662.28"
 xmlns:xlink="http://www.w3.org/1999/xlink"
 xmlns:xodm="http://www.corel.com/coreldraw/odm/2003">
 <defs>
  <style type="text/css">
   <![CDATA[
    .fil0 {fill:url(#id0)}
    .fil1 {fill:url(#id1)}
    .fil2 {fill:url(#id2)}
   ]]>
  </style>
  <linearGradient id="id0" gradientUnits="userSpaceOnUse" x1="1278.69" y1="3003.27" x2="693.45" y2="390.99">
   <stop offset="0" style="stop-opacity:1; stop-color:#010101"/>
   <stop offset="1" style="stop-opacity:1; stop-color:white"/>
  </linearGradient>
  <linearGradient id="id1" gradientUnits="userSpaceOnUse" xlink:href="#id0" x1="2390.23" y1="3003.27" x2="1804.99" y2="390.99">
  </linearGradient>
  <linearGradient id="id2" gradientUnits="userSpaceOnUse" xlink:href="#id0" x1="1378.85" y1="395.98" x2="1829.13" y2="3099.47">
  </linearGradient>
 </defs>
 <g id="Слой_x0020_1">
  <metadata id="CorelCorpID_0Corel-Layer"/>
  <path class="fil0" d="M1111.54 0c407.56,0 741.03,333.47 741.03,741.03l0 713.7 -370.51 0 0 -713.7c0,-203.78 -166.73,-370.51 -370.51,-370.51 -203.78,0 -370.51,166.73 -370.51,370.51l0 924.67 0 440.96 0 185.1c0,6.33 -0.08,12.51 -0.2,18.62l-0.29 0c-6.4,129.31 -79.09,241.17 -184.79,302.32 -111.03,-63.99 -185.23,-183.58 -185.23,-320.94l0 -185.1 0 -440.96 0 -924.67c0,-407.56 333.47,-741.03 741.03,-741.03z"/>
  <path class="fil1" d="M2223.09 0c407.56,0 741.03,333.47 741.03,741.03l0 924.67 0 180.1 0 260.86 0 65.83 0 119.27c0,6.33 -0.08,12.51 -0.2,18.62l-0.29 0c-0.14,2.76 -0.31,5.51 -0.51,8.24l-0.13 1.77c-0.21,2.69 -0.43,5.37 -0.69,8.05l-0.02 0.19 -0.03 0.23c-0.26,2.65 -0.56,5.29 -0.88,7.91l-0.21 1.7c-0.34,2.7 -0.7,5.39 -1.1,8.08l-0.06 0.37c-0.38,2.52 -0.79,5.04 -1.21,7.54l-0.33 1.94c-0.45,2.58 -0.93,5.15 -1.43,7.71l-0.21 1c-0.46,2.3 -0.94,4.59 -1.45,6.87l-0.44 1.96c-0.58,2.56 -1.18,5.11 -1.81,7.64l-0.2 0.8c-0.57,2.26 -1.16,4.51 -1.77,6.75l-0.57 2.07c-0.67,2.42 -1.36,4.82 -2.08,7.23l-0.51 1.66c-0.62,2.03 -1.26,4.06 -1.92,6.08l-0.58 1.79c-0.8,2.41 -1.62,4.81 -2.46,7.2l-0.62 1.72c-0.67,1.86 -1.35,3.7 -2.05,5.55l-0.86 2.29c-0.85,2.22 -1.73,4.42 -2.62,6.62l-0.94 2.28c-0.68,1.63 -1.36,3.25 -2.06,4.87l-1.04 2.39c-0.95,2.16 -1.92,4.3 -2.9,6.44l-1.09 2.31c-0.72,1.52 -1.45,3.03 -2.18,4.54l-1.24 2.53c-1.03,2.06 -2.07,4.11 -3.13,6.15l-1.17 2.21c-0.84,1.59 -1.7,3.17 -2.56,4.74l-1.2 2.19c-1.12,2.01 -2.26,4.01 -3.42,6l-1.36 2.3c-0.83,1.4 -1.67,2.8 -2.52,4.19l-1.57 2.56c-1.13,1.82 -2.27,3.62 -3.43,5.41l-1.78 2.73 -2.44 3.66 -2.12 3.12c-1.07,1.56 -2.16,3.11 -3.26,4.65l-2.18 3.02 -2.17 2.95c-0.96,1.3 -1.93,2.59 -2.91,3.87 -1.04,1.36 -2.08,2.71 -3.14,4.06l-2.09 2.63 -2.44 3.02c-1.36,1.66 -2.73,3.31 -4.12,4.95l-1.95 2.29 -2.85 3.26 -2.13 2.39c-1.34,1.49 -2.69,2.98 -4.05,4.45l-2.52 2.7 -2.83 2.96 -2.33 2.38c-1.59,1.61 -3.18,3.21 -4.79,4.79l-2 1.96 -3.32 3.16 -1.6 1.5c-1.9,1.77 -3.81,3.52 -5.75,5.24l-1.89 1.69 -3.51 3.05 -1.33 1.13c-2.22,1.89 -4.46,3.74 -6.72,5.58l-1.47 1.19 -3.71 2.94 -1.55 1.2c-2.27,1.76 -4.57,3.49 -6.88,5.2l-1.43 1.05 -3.96 2.86 -1.24 0.87c-2.52,1.77 -5.05,3.51 -7.61,5.22l-1.14 0.76c-1.42,0.94 -2.83,1.87 -4.26,2.79l-0.92 0.58c-2.64,1.69 -5.31,3.34 -7.99,4.96l-1.48 0.89c-3.01,1.8 -6.06,3.56 -9.13,5.27 -105.71,-38.99 -180.47,-132.43 -180.47,-323.64l0 -86.86 0 -32.41 0 -65.83 0 -440.96 0 -924.67c0,-203.78 -166.73,-370.51 -370.51,-370.51 -203.78,0 -370.51,166.73 -370.51,370.51l0 924.67 0 440.96 0 185.1c0,6.33 -0.08,12.51 -0.2,18.62l-0.29 0c-6.4,129.31 -79.09,241.17 -184.79,302.32 -111.03,-63.99 -185.23,-183.58 -185.23,-320.94l0 -185.1 0 -440.96 0 -924.67c0,-407.56 333.47,-741.03 741.03,-741.03z"/>
  <path class="fil2" d="M1852.08 2310.38c-9.7,195.98 -171.63,351.9 -370.03,351.9 -204.64,0 -370.51,-165.88 -370.51,-370.51l0 -185.1 0 -440.96 0 -210.97 0 -713.7c0,-203.78 -166.73,-370.51 -370.51,-370.51 -203.78,0 -370.51,166.73 -370.51,370.51l0 924.67 0 440.96 0 185.1c0,102.32 86.09,185.26 185.26,185.26 99.17,0 175.42,-73.08 184.77,-166.64 -9.7,195.98 -171.63,351.9 -370.03,351.9 -204.64,0 -370.51,-165.88 -370.51,-370.51l0 -185.1 0 -440.96 0 -924.67c0,-407.56 333.47,-741.03 741.03,-741.03 220.74,0 419.71,97.85 555.77,252.28 136.06,-154.43 335.03,-252.28 555.77,-252.28 407.56,0 741.03,333.48 741.03,741.03l0 1365.63 0 185.1c0,102.32 86.09,185.26 185.26,185.26 99.17,0 175.42,-73.08 184.77,-166.64 -9.7,195.98 -171.63,351.9 -370.03,351.9 -204.64,0 -370.51,-165.88 -370.51,-370.51l0 -185.1 0 -1365.63c0,-203.78 -166.73,-370.51 -370.51,-370.51 -203.78,0 -370.51,166.73 -370.51,370.51l0 713.7 0 651.93 0 185.1c0,102.32 86.09,185.26 185.26,185.26 99.17,0 175.42,-73.08 184.77,-166.64z"/>
 </g>
</svg>
